<svg width="200" height="190" viewBox="0 0 200 190" fill="none" xmlns="http://www.w3.org/2000/svg">
<path d="M85.4342 190C132.618 190 170.868 182.878 170.868 174.092C170.868 165.306 132.618 158.183 85.4342 158.183C38.2502 158.183 0 165.306 0 174.092C0 182.878 38.2502 190 85.4342 190Z" fill="#F5F5F7" fill-opacity="0.8"/>
<path fill-rule="evenodd" clip-rule="evenodd" d="M153.781 127.356L123.632 90.3792C122.185 88.6387 120.071 87.5851 117.844 87.5851H53.022C50.7966 87.5851 48.682 88.6387 47.2354 90.3792L17.0876 127.356V146.674H153.782V127.356H153.781Z" fill="#AEB8C2"/>
<path fill-rule="evenodd" clip-rule="evenodd" d="M42.6307 39.8599H128.236C129.573 39.8599 130.855 40.3892 131.8 41.3312C132.746 42.2732 133.277 43.5509 133.277 44.8831V162.104C133.277 163.436 132.746 164.714 131.8 165.656C130.855 166.598 129.573 167.127 128.236 167.127H42.6307C41.2938 167.127 40.0117 166.598 39.0664 165.656C38.1211 164.714 37.5901 163.436 37.5901 162.104V44.8831C37.5901 43.5509 38.1211 42.2732 39.0664 41.3312C40.0117 40.3892 41.2938 39.8599 42.6307 39.8599V39.8599Z" fill="#F5F5F7"/>
<path fill-rule="evenodd" clip-rule="evenodd" d="M53.7806 52.3588H117.087C117.755 52.3588 118.396 52.6235 118.869 53.0945C119.341 53.5655 119.607 54.2043 119.607 54.8704V86.2113C119.607 86.8774 119.341 87.5162 118.869 87.9872C118.396 88.4582 117.755 88.7228 117.087 88.7228H53.7806C53.1122 88.7228 52.4712 88.4582 51.9985 87.9872C51.5259 87.5162 51.2603 86.8774 51.2603 86.2113V54.8704C51.2603 54.2043 51.5259 53.5655 51.9985 53.0945C52.4712 52.6235 53.1122 52.3588 53.7806 52.3588ZM54.1108 102.357H116.756C117.512 102.357 118.237 102.656 118.772 103.189C119.307 103.722 119.607 104.444 119.607 105.198C119.607 105.951 119.307 106.673 118.772 107.206C118.237 107.739 117.512 108.038 116.756 108.038H54.1108C53.3548 108.038 52.6298 107.739 52.0952 107.206C51.5607 106.673 51.2603 105.951 51.2603 105.198C51.2603 104.444 51.5607 103.722 52.0952 103.189C52.6298 102.656 53.3548 102.357 54.1108 102.357ZM54.1108 117.129H116.756C117.513 117.129 118.238 117.428 118.773 117.961C119.307 118.494 119.608 119.217 119.608 119.97C119.608 120.724 119.307 121.446 118.773 121.979C118.238 122.512 117.513 122.811 116.756 122.811H54.1108C53.3546 122.811 52.6295 122.512 52.0948 121.979C51.5601 121.446 51.2597 120.724 51.2597 119.97C51.2597 119.217 51.5601 118.494 52.0948 117.961C52.6295 117.428 53.3546 117.129 54.1108 117.129ZM153.502 171.758C152.526 175.615 149.096 178.489 145.015 178.489H25.852C21.7717 178.489 18.3415 175.614 17.3662 171.758C17.1802 171.023 17.0862 170.268 17.0864 169.51V127.357H50.251C53.9142 127.357 56.8667 130.431 56.8667 134.164V134.214C56.8667 137.945 59.8533 140.958 63.5165 140.958H107.351C111.014 140.958 114.001 137.917 114.001 134.185V134.17C114.001 130.438 116.953 127.356 120.616 127.356H153.781V169.512C153.781 170.287 153.684 171.039 153.502 171.758Z" fill="#DCE0E6"/>
<path fill-rule="evenodd" clip-rule="evenodd" d="M156.336 41.8238L147.785 45.1462C147.566 45.2318 147.326 45.2535 147.095 45.2089C146.863 45.1642 146.649 45.0551 146.477 44.894C146.305 44.7329 146.181 44.5264 146.121 44.2982C146.061 44.07 146.066 43.8294 146.136 43.6041L148.561 35.8221C145.32 32.1311 143.417 27.6301 143.417 22.7731C143.417 10.2419 156.084 0.0840302 171.71 0.0840302C187.332 0.0840302 200 10.2419 200 22.7731C200 35.3043 187.333 45.4622 171.709 45.4622C166.04 45.4622 160.762 44.1257 156.336 41.8238Z" fill="#DCE0E6"/>
<path d="M161.344 26.4146C163.201 26.4146 164.706 24.9096 164.706 23.0532C164.706 21.1968 163.201 19.6919 161.344 19.6919C159.488 19.6919 157.983 21.1968 157.983 23.0532C157.983 24.9096 159.488 26.4146 161.344 26.4146Z" fill="white"/>
<path d="M171.897 26.4146C173.753 26.4146 175.258 24.9096 175.258 23.0532C175.258 21.1968 173.753 19.6919 171.897 19.6919C170.041 19.6919 168.536 21.1968 168.536 23.0532C168.536 24.9096 170.041 26.4146 171.897 26.4146Z" fill="white"/>
<path d="M182.45 26.4146C184.306 26.4146 185.811 24.9096 185.811 23.0532C185.811 21.1968 184.306 19.6919 182.45 19.6919C180.593 19.6919 179.088 21.1968 179.088 23.0532C179.088 24.9096 180.593 26.4146 182.45 26.4146Z" fill="white"/>
</svg>
